<svg xmlns="http://www.w3.org/2000/svg" width="300" height="28" viewBox="0 0 300 28" shape-rendering="crispEdges"><title>SAVE DATA</title><rect x="0" y="4" width="4" height="20" fill="#9b83b3"/><rect x="8" y="10" width="4" height="8" fill="#9b83b3"/><path fill="#9b83b3" d="M28 7h2v2h-2zM30 7h2v2h-2zM32 7h2v2h-2zM34 7h2v2h-2zM26 9h2v2h-2zM26 11h2v2h-2zM28 13h2v2h-2zM30 13h2v2h-2zM32 13h2v2h-2zM34 15h2v2h-2zM34 17h2v2h-2zM26 19h2v2h-2zM28 19h2v2h-2zM30 19h2v2h-2zM32 19h2v2h-2zM40 7h2v2h-2zM42 7h2v2h-2zM44 7h2v2h-2zM38 9h2v2h-2zM46 9h2v2h-2zM38 11h2v2h-2zM46 11h2v2h-2zM38 13h2v2h-2zM40 13h2v2h-2zM42 13h2v2h-2zM44 13h2v2h-2zM46 13h2v2h-2zM38 15h2v2h-2zM46 15h2v2h-2zM38 17h2v2h-2zM46 17h2v2h-2zM38 19h2v2h-2zM46 19h2v2h-2zM50 7h2v2h-2zM58 7h2v2h-2zM50 9h2v2h-2zM58 9h2v2h-2zM50 11h2v2h-2zM58 11h2v2h-2zM50 13h2v2h-2zM58 13h2v2h-2zM50 15h2v2h-2zM58 15h2v2h-2zM50 17h2v2h-2zM58 17h2v2h-2zM52 19h2v2h-2zM56 19h2v2h-2zM62 7h2v2h-2zM64 7h2v2h-2zM66 7h2v2h-2zM68 7h2v2h-2zM70 7h2v2h-2zM62 9h2v2h-2zM62 11h2v2h-2zM62 13h2v2h-2zM64 13h2v2h-2zM66 13h2v2h-2zM68 13h2v2h-2zM62 15h2v2h-2zM62 17h2v2h-2zM62 19h2v2h-2zM64 19h2v2h-2zM66 19h2v2h-2zM68 19h2v2h-2zM70 19h2v2h-2zM86 7h2v2h-2zM88 7h2v2h-2zM90 7h2v2h-2zM92 7h2v2h-2zM86 9h2v2h-2zM94 9h2v2h-2zM86 11h2v2h-2zM94 11h2v2h-2zM86 13h2v2h-2zM94 13h2v2h-2zM86 15h2v2h-2zM94 15h2v2h-2zM86 17h2v2h-2zM94 17h2v2h-2zM86 19h2v2h-2zM88 19h2v2h-2zM90 19h2v2h-2zM92 19h2v2h-2zM100 7h2v2h-2zM102 7h2v2h-2zM104 7h2v2h-2zM98 9h2v2h-2zM106 9h2v2h-2zM98 11h2v2h-2zM106 11h2v2h-2zM98 13h2v2h-2zM100 13h2v2h-2zM102 13h2v2h-2zM104 13h2v2h-2zM106 13h2v2h-2zM98 15h2v2h-2zM106 15h2v2h-2zM98 17h2v2h-2zM106 17h2v2h-2zM98 19h2v2h-2zM106 19h2v2h-2zM110 7h2v2h-2zM112 7h2v2h-2zM114 7h2v2h-2zM116 7h2v2h-2zM118 7h2v2h-2zM114 9h2v2h-2zM114 11h2v2h-2zM114 13h2v2h-2zM114 15h2v2h-2zM114 17h2v2h-2zM114 19h2v2h-2zM124 7h2v2h-2zM126 7h2v2h-2zM128 7h2v2h-2zM122 9h2v2h-2zM130 9h2v2h-2zM122 11h2v2h-2zM130 11h2v2h-2zM122 13h2v2h-2zM124 13h2v2h-2zM126 13h2v2h-2zM128 13h2v2h-2zM130 13h2v2h-2zM122 15h2v2h-2zM130 15h2v2h-2zM122 17h2v2h-2zM130 17h2v2h-2zM122 19h2v2h-2zM130 19h2v2h-2z"/></svg>