<svg xmlns="http://www.w3.org/2000/svg" width="600" height="174" viewBox="0 0 600 174" role="img" aria-label="PIXELADVENTURE2D-UE5"><title>PIXELADVENTURE2D-UE5</title><rect x="0" y="0" width="600" height="174" fill="#f3f4f2"/><path d="M8 0H592v4H8zM0 8h4v158H0zM596 8h4v158h-4zM8 170H592v4H8z" fill="#aeb9b7"/><rect x="8" y="0" width="64" height="4" fill="#a66b57"/><rect x="76" y="0" width="24" height="4" fill="#987a43"/><rect x="104" y="0" width="12" height="4" fill="#806990"/><rect x="12" y="12" width="4" height="150" fill="#a66b57"/><g transform="translate(34 52) scale(2.6)"><rect x="3" y="22" width="28" height="3" fill="#83c49b"/><rect x="4" y="25" width="26" height="4" fill="#e5c285"/><rect x="6" y="29" width="22" height="2" fill="#e79b8b"/><rect x="9" y="31" width="15" height="2" fill="#274940"/><rect x="8" y="20" width="3" height="2" fill="#e6ebce"/><rect x="18" y="27" width="3" height="2" fill="#274940"/><rect x="23" y="12" width="2" height="10" fill="#274940"/><rect x="25" y="12" width="7" height="5" fill="#e79b8b"/><rect x="8" y="13" width="7" height="6" fill="#274940"/><rect x="9" y="14" width="5" height="4" fill="#e6ebce"/><rect x="7" y="19" width="9" height="3" fill="#b6a0cf"/><rect x="6" y="9" width="2" height="2" fill="#e5c285"/><rect x="3" y="11" width="6" height="2" fill="#e5c285"/><rect x="6" y="13" width="2" height="2" fill="#e5c285"/></g><path fill="#a66b57" d="M152.4 25h2.4v2.4h-2.4zM154.8 25h2.4v2.4h-2.4zM157.2 25h2.4v2.4h-2.4zM150 27.4h2.4v2.4h-2.4zM159.6 27.4h2.4v2.4h-2.4zM150 29.8h2.4v2.4h-2.4zM159.6 29.8h2.4v2.4h-2.4zM150 32.2h2.4v2.4h-2.4zM159.6 32.2h2.4v2.4h-2.4zM150 34.6h2.4v2.4h-2.4zM154.8 34.6h2.4v2.4h-2.4zM159.6 34.6h2.4v2.4h-2.4zM150 37h2.4v2.4h-2.4zM157.2 37h2.4v2.4h-2.4zM152.4 39.4h2.4v2.4h-2.4zM154.8 39.4h2.4v2.4h-2.4zM159.6 39.4h2.4v2.4h-2.4zM164.4 25h2.4v2.4h-2.4zM174 25h2.4v2.4h-2.4zM164.4 27.4h2.4v2.4h-2.4zM174 27.4h2.4v2.4h-2.4zM164.4 29.8h2.4v2.4h-2.4zM174 29.8h2.4v2.4h-2.4zM164.4 32.2h2.4v2.4h-2.4zM174 32.2h2.4v2.4h-2.4zM164.4 34.6h2.4v2.4h-2.4zM174 34.6h2.4v2.4h-2.4zM164.4 37h2.4v2.4h-2.4zM174 37h2.4v2.4h-2.4zM166.8 39.4h2.4v2.4h-2.4zM169.2 39.4h2.4v2.4h-2.4zM171.6 39.4h2.4v2.4h-2.4zM178.8 25h2.4v2.4h-2.4zM181.2 25h2.4v2.4h-2.4zM183.6 25h2.4v2.4h-2.4zM186 25h2.4v2.4h-2.4zM188.4 25h2.4v2.4h-2.4zM178.8 27.4h2.4v2.4h-2.4zM178.8 29.8h2.4v2.4h-2.4zM178.8 32.2h2.4v2.4h-2.4zM181.2 32.2h2.4v2.4h-2.4zM183.6 32.2h2.4v2.4h-2.4zM186 32.2h2.4v2.4h-2.4zM178.8 34.6h2.4v2.4h-2.4zM178.8 37h2.4v2.4h-2.4zM178.8 39.4h2.4v2.4h-2.4zM181.2 39.4h2.4v2.4h-2.4zM183.6 39.4h2.4v2.4h-2.4zM186 39.4h2.4v2.4h-2.4zM188.4 39.4h2.4v2.4h-2.4zM195.6 25h2.4v2.4h-2.4zM198 25h2.4v2.4h-2.4zM200.4 25h2.4v2.4h-2.4zM202.8 25h2.4v2.4h-2.4zM193.2 27.4h2.4v2.4h-2.4zM193.2 29.8h2.4v2.4h-2.4zM195.6 32.2h2.4v2.4h-2.4zM198 32.2h2.4v2.4h-2.4zM200.4 32.2h2.4v2.4h-2.4zM202.8 34.6h2.4v2.4h-2.4zM202.8 37h2.4v2.4h-2.4zM193.2 39.4h2.4v2.4h-2.4zM195.6 39.4h2.4v2.4h-2.4zM198 39.4h2.4v2.4h-2.4zM200.4 39.4h2.4v2.4h-2.4zM207.6 25h2.4v2.4h-2.4zM210 25h2.4v2.4h-2.4zM212.4 25h2.4v2.4h-2.4zM214.8 25h2.4v2.4h-2.4zM217.2 25h2.4v2.4h-2.4zM212.4 27.4h2.4v2.4h-2.4zM212.4 29.8h2.4v2.4h-2.4zM212.4 32.2h2.4v2.4h-2.4zM212.4 34.6h2.4v2.4h-2.4zM212.4 37h2.4v2.4h-2.4zM212.4 39.4h2.4v2.4h-2.4zM238.8 25h2.4v2.4h-2.4zM241.2 25h2.4v2.4h-2.4zM243.6 25h2.4v2.4h-2.4zM236.39999999999998 27.4h2.4v2.4h-2.4zM246 27.4h2.4v2.4h-2.4zM236.39999999999998 29.8h2.4v2.4h-2.4zM243.6 29.8h2.4v2.4h-2.4zM246 29.8h2.4v2.4h-2.4zM236.39999999999998 32.2h2.4v2.4h-2.4zM241.2 32.2h2.4v2.4h-2.4zM246 32.2h2.4v2.4h-2.4zM236.39999999999998 34.6h2.4v2.4h-2.4zM238.8 34.6h2.4v2.4h-2.4zM246 34.6h2.4v2.4h-2.4zM236.39999999999998 37h2.4v2.4h-2.4zM246 37h2.4v2.4h-2.4zM238.8 39.4h2.4v2.4h-2.4zM241.2 39.4h2.4v2.4h-2.4zM243.6 39.4h2.4v2.4h-2.4zM258 25h2.4v2.4h-2.4zM255.6 27.4h2.4v2.4h-2.4zM258 27.4h2.4v2.4h-2.4zM253.2 29.8h2.4v2.4h-2.4zM258 29.8h2.4v2.4h-2.4zM250.8 32.2h2.4v2.4h-2.4zM258 32.2h2.4v2.4h-2.4zM250.8 34.6h2.4v2.4h-2.4zM253.2 34.6h2.4v2.4h-2.4zM255.6 34.6h2.4v2.4h-2.4zM258 34.6h2.4v2.4h-2.4zM260.4 34.6h2.4v2.4h-2.4zM258 37h2.4v2.4h-2.4zM258 39.4h2.4v2.4h-2.4z"/><path fill="#303b3e" d="M150 54h3.3v3.3h-3.3zM153.3 54h3.3v3.3h-3.3zM156.6 54h3.3v3.3h-3.3zM159.9 54h3.3v3.3h-3.3zM150 57.3h3.3v3.3h-3.3zM163.2 57.3h3.3v3.3h-3.3zM150 60.6h3.3v3.3h-3.3zM163.2 60.6h3.3v3.3h-3.3zM150 63.9h3.3v3.3h-3.3zM153.3 63.9h3.3v3.3h-3.3zM156.6 63.9h3.3v3.3h-3.3zM159.9 63.9h3.3v3.3h-3.3zM150 67.2h3.3v3.3h-3.3zM150 70.5h3.3v3.3h-3.3zM150 73.8h3.3v3.3h-3.3zM169.8 54h3.3v3.3h-3.3zM173.1 54h3.3v3.3h-3.3zM176.4 54h3.3v3.3h-3.3zM179.7 54h3.3v3.3h-3.3zM183 54h3.3v3.3h-3.3zM176.4 57.3h3.3v3.3h-3.3zM176.4 60.6h3.3v3.3h-3.3zM176.4 63.9h3.3v3.3h-3.3zM176.4 67.2h3.3v3.3h-3.3zM176.4 70.5h3.3v3.3h-3.3zM169.8 73.8h3.3v3.3h-3.3zM173.1 73.8h3.3v3.3h-3.3zM176.4 73.8h3.3v3.3h-3.3zM179.7 73.8h3.3v3.3h-3.3zM183 73.8h3.3v3.3h-3.3zM189.6 54h3.3v3.3h-3.3zM202.8 54h3.3v3.3h-3.3zM189.6 57.3h3.3v3.3h-3.3zM202.8 57.3h3.3v3.3h-3.3zM192.9 60.6h3.3v3.3h-3.3zM199.5 60.6h3.3v3.3h-3.3zM196.2 63.9h3.3v3.3h-3.3zM192.9 67.2h3.3v3.3h-3.3zM199.5 67.2h3.3v3.3h-3.3zM189.6 70.5h3.3v3.3h-3.3zM202.8 70.5h3.3v3.3h-3.3zM189.6 73.8h3.3v3.3h-3.3zM202.8 73.8h3.3v3.3h-3.3zM209.4 54h3.3v3.3h-3.3zM212.7 54h3.3v3.3h-3.3zM216 54h3.3v3.3h-3.3zM219.3 54h3.3v3.3h-3.3zM222.6 54h3.3v3.3h-3.3zM209.4 57.3h3.3v3.3h-3.3zM209.4 60.6h3.3v3.3h-3.3zM209.4 63.9h3.3v3.3h-3.3zM212.7 63.9h3.3v3.3h-3.3zM216 63.9h3.3v3.3h-3.3zM219.3 63.9h3.3v3.3h-3.3zM209.4 67.2h3.3v3.3h-3.3zM209.4 70.5h3.3v3.3h-3.3zM209.4 73.8h3.3v3.3h-3.3zM212.7 73.8h3.3v3.3h-3.3zM216 73.8h3.3v3.3h-3.3zM219.3 73.8h3.3v3.3h-3.3zM222.6 73.8h3.3v3.3h-3.3zM229.2 54h3.3v3.3h-3.3zM229.2 57.3h3.3v3.3h-3.3zM229.2 60.6h3.3v3.3h-3.3zM229.2 63.9h3.3v3.3h-3.3zM229.2 67.2h3.3v3.3h-3.3zM229.2 70.5h3.3v3.3h-3.3zM229.2 73.8h3.3v3.3h-3.3zM232.5 73.8h3.3v3.3h-3.3zM235.8 73.8h3.3v3.3h-3.3zM239.1 73.8h3.3v3.3h-3.3zM242.39999999999998 73.8h3.3v3.3h-3.3zM252.3 54h3.3v3.3h-3.3zM255.6 54h3.3v3.3h-3.3zM258.9 54h3.3v3.3h-3.3zM249 57.3h3.3v3.3h-3.3zM262.2 57.3h3.3v3.3h-3.3zM249 60.6h3.3v3.3h-3.3zM262.2 60.6h3.3v3.3h-3.3zM249 63.9h3.3v3.3h-3.3zM252.3 63.9h3.3v3.3h-3.3zM255.6 63.9h3.3v3.3h-3.3zM258.9 63.9h3.3v3.3h-3.3zM262.2 63.9h3.3v3.3h-3.3zM249 67.2h3.3v3.3h-3.3zM262.2 67.2h3.3v3.3h-3.3zM249 70.5h3.3v3.3h-3.3zM262.2 70.5h3.3v3.3h-3.3zM249 73.8h3.3v3.3h-3.3zM262.2 73.8h3.3v3.3h-3.3zM268.8 54h3.3v3.3h-3.3zM272.1 54h3.3v3.3h-3.3zM275.4 54h3.3v3.3h-3.3zM278.7 54h3.3v3.3h-3.3zM268.8 57.3h3.3v3.3h-3.3zM282 57.3h3.3v3.3h-3.3zM268.8 60.6h3.3v3.3h-3.3zM282 60.6h3.3v3.3h-3.3zM268.8 63.9h3.3v3.3h-3.3zM282 63.9h3.3v3.3h-3.3zM268.8 67.2h3.3v3.3h-3.3zM282 67.2h3.3v3.3h-3.3zM268.8 70.5h3.3v3.3h-3.3zM282 70.5h3.3v3.3h-3.3zM268.8 73.8h3.3v3.3h-3.3zM272.1 73.8h3.3v3.3h-3.3zM275.4 73.8h3.3v3.3h-3.3zM278.7 73.8h3.3v3.3h-3.3zM288.6 54h3.3v3.3h-3.3zM301.79999999999995 54h3.3v3.3h-3.3zM288.6 57.3h3.3v3.3h-3.3zM301.79999999999995 57.3h3.3v3.3h-3.3zM288.6 60.6h3.3v3.3h-3.3zM301.79999999999995 60.6h3.3v3.3h-3.3zM288.6 63.9h3.3v3.3h-3.3zM301.79999999999995 63.9h3.3v3.3h-3.3zM288.6 67.2h3.3v3.3h-3.3zM301.79999999999995 67.2h3.3v3.3h-3.3zM288.6 70.5h3.3v3.3h-3.3zM301.79999999999995 70.5h3.3v3.3h-3.3zM291.9 73.8h3.3v3.3h-3.3zM298.5 73.8h3.3v3.3h-3.3zM308.4 54h3.3v3.3h-3.3zM311.7 54h3.3v3.3h-3.3zM315 54h3.3v3.3h-3.3zM318.29999999999995 54h3.3v3.3h-3.3zM321.6 54h3.3v3.3h-3.3zM308.4 57.3h3.3v3.3h-3.3zM308.4 60.6h3.3v3.3h-3.3zM308.4 63.9h3.3v3.3h-3.3zM311.7 63.9h3.3v3.3h-3.3zM315 63.9h3.3v3.3h-3.3zM318.29999999999995 63.9h3.3v3.3h-3.3zM308.4 67.2h3.3v3.3h-3.3zM308.4 70.5h3.3v3.3h-3.3zM308.4 73.8h3.3v3.3h-3.3zM311.7 73.8h3.3v3.3h-3.3zM315 73.8h3.3v3.3h-3.3zM318.29999999999995 73.8h3.3v3.3h-3.3zM321.6 73.8h3.3v3.3h-3.3zM328.2 54h3.3v3.3h-3.3zM341.4 54h3.3v3.3h-3.3zM328.2 57.3h3.3v3.3h-3.3zM331.5 57.3h3.3v3.3h-3.3zM341.4 57.3h3.3v3.3h-3.3zM328.2 60.6h3.3v3.3h-3.3zM331.5 60.6h3.3v3.3h-3.3zM341.4 60.6h3.3v3.3h-3.3zM328.2 63.9h3.3v3.3h-3.3zM334.79999999999995 63.9h3.3v3.3h-3.3zM341.4 63.9h3.3v3.3h-3.3zM328.2 67.2h3.3v3.3h-3.3zM338.1 67.2h3.3v3.3h-3.3zM341.4 67.2h3.3v3.3h-3.3zM328.2 70.5h3.3v3.3h-3.3zM338.1 70.5h3.3v3.3h-3.3zM341.4 70.5h3.3v3.3h-3.3zM328.2 73.8h3.3v3.3h-3.3zM341.4 73.8h3.3v3.3h-3.3zM348 54h3.3v3.3h-3.3zM351.29999999999995 54h3.3v3.3h-3.3zM354.6 54h3.3v3.3h-3.3zM357.9 54h3.3v3.3h-3.3zM361.2 54h3.3v3.3h-3.3zM354.6 57.3h3.3v3.3h-3.3zM354.6 60.6h3.3v3.3h-3.3zM354.6 63.9h3.3v3.3h-3.3zM354.6 67.2h3.3v3.3h-3.3zM354.6 70.5h3.3v3.3h-3.3zM354.6 73.8h3.3v3.3h-3.3zM367.79999999999995 54h3.3v3.3h-3.3zM381 54h3.3v3.3h-3.3zM367.79999999999995 57.3h3.3v3.3h-3.3zM381 57.3h3.3v3.3h-3.3zM367.79999999999995 60.6h3.3v3.3h-3.3zM381 60.6h3.3v3.3h-3.3zM367.79999999999995 63.9h3.3v3.3h-3.3zM381 63.9h3.3v3.3h-3.3zM367.79999999999995 67.2h3.3v3.3h-3.3zM381 67.2h3.3v3.3h-3.3zM367.79999999999995 70.5h3.3v3.3h-3.3zM381 70.5h3.3v3.3h-3.3zM371.1 73.8h3.3v3.3h-3.3zM374.4 73.8h3.3v3.3h-3.3zM377.7 73.8h3.3v3.3h-3.3zM387.6 54h3.3v3.3h-3.3zM390.9 54h3.3v3.3h-3.3zM394.2 54h3.3v3.3h-3.3zM397.5 54h3.3v3.3h-3.3zM387.6 57.3h3.3v3.3h-3.3zM400.79999999999995 57.3h3.3v3.3h-3.3zM387.6 60.6h3.3v3.3h-3.3zM400.79999999999995 60.6h3.3v3.3h-3.3zM387.6 63.9h3.3v3.3h-3.3zM390.9 63.9h3.3v3.3h-3.3zM394.2 63.9h3.3v3.3h-3.3zM397.5 63.9h3.3v3.3h-3.3zM387.6 67.2h3.3v3.3h-3.3zM394.2 67.2h3.3v3.3h-3.3zM387.6 70.5h3.3v3.3h-3.3zM397.5 70.5h3.3v3.3h-3.3zM387.6 73.8h3.3v3.3h-3.3zM400.79999999999995 73.8h3.3v3.3h-3.3zM407.4 54h3.3v3.3h-3.3zM410.7 54h3.3v3.3h-3.3zM414 54h3.3v3.3h-3.3zM417.3 54h3.3v3.3h-3.3zM420.59999999999997 54h3.3v3.3h-3.3zM407.4 57.3h3.3v3.3h-3.3zM407.4 60.6h3.3v3.3h-3.3zM407.4 63.9h3.3v3.3h-3.3zM410.7 63.9h3.3v3.3h-3.3zM414 63.9h3.3v3.3h-3.3zM417.3 63.9h3.3v3.3h-3.3zM407.4 67.2h3.3v3.3h-3.3zM407.4 70.5h3.3v3.3h-3.3zM407.4 73.8h3.3v3.3h-3.3zM410.7 73.8h3.3v3.3h-3.3zM414 73.8h3.3v3.3h-3.3zM417.3 73.8h3.3v3.3h-3.3zM420.59999999999997 73.8h3.3v3.3h-3.3zM430.5 54h3.3v3.3h-3.3zM433.8 54h3.3v3.3h-3.3zM437.09999999999997 54h3.3v3.3h-3.3zM427.2 57.3h3.3v3.3h-3.3zM440.4 57.3h3.3v3.3h-3.3zM440.4 60.6h3.3v3.3h-3.3zM437.09999999999997 63.9h3.3v3.3h-3.3zM433.8 67.2h3.3v3.3h-3.3zM430.5 70.5h3.3v3.3h-3.3zM427.2 73.8h3.3v3.3h-3.3zM430.5 73.8h3.3v3.3h-3.3zM433.8 73.8h3.3v3.3h-3.3zM437.09999999999997 73.8h3.3v3.3h-3.3zM440.4 73.8h3.3v3.3h-3.3zM447 54h3.3v3.3h-3.3zM450.3 54h3.3v3.3h-3.3zM453.59999999999997 54h3.3v3.3h-3.3zM456.9 54h3.3v3.3h-3.3zM447 57.3h3.3v3.3h-3.3zM460.2 57.3h3.3v3.3h-3.3zM447 60.6h3.3v3.3h-3.3zM460.2 60.6h3.3v3.3h-3.3zM447 63.9h3.3v3.3h-3.3zM460.2 63.9h3.3v3.3h-3.3zM447 67.2h3.3v3.3h-3.3zM460.2 67.2h3.3v3.3h-3.3zM447 70.5h3.3v3.3h-3.3zM460.2 70.5h3.3v3.3h-3.3zM447 73.8h3.3v3.3h-3.3zM450.3 73.8h3.3v3.3h-3.3zM453.59999999999997 73.8h3.3v3.3h-3.3zM456.9 73.8h3.3v3.3h-3.3zM466.79999999999995 63.9h3.3v3.3h-3.3zM470.09999999999997 63.9h3.3v3.3h-3.3zM473.4 63.9h3.3v3.3h-3.3zM476.7 63.9h3.3v3.3h-3.3zM480 63.9h3.3v3.3h-3.3zM486.59999999999997 54h3.3v3.3h-3.3zM499.79999999999995 54h3.3v3.3h-3.3zM486.59999999999997 57.3h3.3v3.3h-3.3zM499.79999999999995 57.3h3.3v3.3h-3.3zM486.59999999999997 60.6h3.3v3.3h-3.3zM499.79999999999995 60.6h3.3v3.3h-3.3zM486.59999999999997 63.9h3.3v3.3h-3.3zM499.79999999999995 63.9h3.3v3.3h-3.3zM486.59999999999997 67.2h3.3v3.3h-3.3zM499.79999999999995 67.2h3.3v3.3h-3.3zM486.59999999999997 70.5h3.3v3.3h-3.3zM499.79999999999995 70.5h3.3v3.3h-3.3zM489.9 73.8h3.3v3.3h-3.3zM493.2 73.8h3.3v3.3h-3.3zM496.5 73.8h3.3v3.3h-3.3zM506.4 54h3.3v3.3h-3.3zM509.7 54h3.3v3.3h-3.3zM513 54h3.3v3.3h-3.3zM516.3 54h3.3v3.3h-3.3zM519.5999999999999 54h3.3v3.3h-3.3zM506.4 57.3h3.3v3.3h-3.3zM506.4 60.6h3.3v3.3h-3.3zM506.4 63.9h3.3v3.3h-3.3zM509.7 63.9h3.3v3.3h-3.3zM513 63.9h3.3v3.3h-3.3zM516.3 63.9h3.3v3.3h-3.3zM506.4 67.2h3.3v3.3h-3.3zM506.4 70.5h3.3v3.3h-3.3zM506.4 73.8h3.3v3.3h-3.3zM509.7 73.8h3.3v3.3h-3.3zM513 73.8h3.3v3.3h-3.3zM516.3 73.8h3.3v3.3h-3.3zM519.5999999999999 73.8h3.3v3.3h-3.3zM526.2 54h3.3v3.3h-3.3zM529.5 54h3.3v3.3h-3.3zM532.8 54h3.3v3.3h-3.3zM536.0999999999999 54h3.3v3.3h-3.3zM539.4 54h3.3v3.3h-3.3zM526.2 57.3h3.3v3.3h-3.3zM526.2 60.6h3.3v3.3h-3.3zM526.2 63.9h3.3v3.3h-3.3zM529.5 63.9h3.3v3.3h-3.3zM532.8 63.9h3.3v3.3h-3.3zM536.0999999999999 63.9h3.3v3.3h-3.3zM539.4 67.2h3.3v3.3h-3.3zM539.4 70.5h3.3v3.3h-3.3zM526.2 73.8h3.3v3.3h-3.3zM529.5 73.8h3.3v3.3h-3.3zM532.8 73.8h3.3v3.3h-3.3zM536.0999999999999 73.8h3.3v3.3h-3.3z"/><path fill="#627272" d="M150 133h2.5v2.5h-2.5zM152.5 133h2.5v2.5h-2.5zM155 133h2.5v2.5h-2.5zM157.5 133h2.5v2.5h-2.5zM150 135.5h2.5v2.5h-2.5zM160 135.5h2.5v2.5h-2.5zM150 138h2.5v2.5h-2.5zM160 138h2.5v2.5h-2.5zM150 140.5h2.5v2.5h-2.5zM152.5 140.5h2.5v2.5h-2.5zM155 140.5h2.5v2.5h-2.5zM157.5 140.5h2.5v2.5h-2.5zM150 143h2.5v2.5h-2.5zM160 143h2.5v2.5h-2.5zM150 145.5h2.5v2.5h-2.5zM160 145.5h2.5v2.5h-2.5zM150 148h2.5v2.5h-2.5zM152.5 148h2.5v2.5h-2.5zM155 148h2.5v2.5h-2.5zM157.5 148h2.5v2.5h-2.5zM165 133h2.5v2.5h-2.5zM165 135.5h2.5v2.5h-2.5zM165 138h2.5v2.5h-2.5zM165 140.5h2.5v2.5h-2.5zM165 143h2.5v2.5h-2.5zM165 145.5h2.5v2.5h-2.5zM165 148h2.5v2.5h-2.5zM167.5 148h2.5v2.5h-2.5zM170 148h2.5v2.5h-2.5zM172.5 148h2.5v2.5h-2.5zM175 148h2.5v2.5h-2.5zM180 133h2.5v2.5h-2.5zM190 133h2.5v2.5h-2.5zM180 135.5h2.5v2.5h-2.5zM190 135.5h2.5v2.5h-2.5zM180 138h2.5v2.5h-2.5zM190 138h2.5v2.5h-2.5zM180 140.5h2.5v2.5h-2.5zM190 140.5h2.5v2.5h-2.5zM180 143h2.5v2.5h-2.5zM190 143h2.5v2.5h-2.5zM180 145.5h2.5v2.5h-2.5zM190 145.5h2.5v2.5h-2.5zM182.5 148h2.5v2.5h-2.5zM185 148h2.5v2.5h-2.5zM187.5 148h2.5v2.5h-2.5zM195 133h2.5v2.5h-2.5zM197.5 133h2.5v2.5h-2.5zM200 133h2.5v2.5h-2.5zM202.5 133h2.5v2.5h-2.5zM205 133h2.5v2.5h-2.5zM195 135.5h2.5v2.5h-2.5zM195 138h2.5v2.5h-2.5zM195 140.5h2.5v2.5h-2.5zM197.5 140.5h2.5v2.5h-2.5zM200 140.5h2.5v2.5h-2.5zM202.5 140.5h2.5v2.5h-2.5zM195 143h2.5v2.5h-2.5zM195 145.5h2.5v2.5h-2.5zM195 148h2.5v2.5h-2.5zM197.5 148h2.5v2.5h-2.5zM200 148h2.5v2.5h-2.5zM202.5 148h2.5v2.5h-2.5zM205 148h2.5v2.5h-2.5zM210 133h2.5v2.5h-2.5zM212.5 133h2.5v2.5h-2.5zM215 133h2.5v2.5h-2.5zM217.5 133h2.5v2.5h-2.5zM210 135.5h2.5v2.5h-2.5zM220 135.5h2.5v2.5h-2.5zM210 138h2.5v2.5h-2.5zM220 138h2.5v2.5h-2.5zM210 140.5h2.5v2.5h-2.5zM212.5 140.5h2.5v2.5h-2.5zM215 140.5h2.5v2.5h-2.5zM217.5 140.5h2.5v2.5h-2.5zM210 143h2.5v2.5h-2.5zM210 145.5h2.5v2.5h-2.5zM210 148h2.5v2.5h-2.5zM225 133h2.5v2.5h-2.5zM227.5 133h2.5v2.5h-2.5zM230 133h2.5v2.5h-2.5zM232.5 133h2.5v2.5h-2.5zM225 135.5h2.5v2.5h-2.5zM235 135.5h2.5v2.5h-2.5zM225 138h2.5v2.5h-2.5zM235 138h2.5v2.5h-2.5zM225 140.5h2.5v2.5h-2.5zM227.5 140.5h2.5v2.5h-2.5zM230 140.5h2.5v2.5h-2.5zM232.5 140.5h2.5v2.5h-2.5zM225 143h2.5v2.5h-2.5zM230 143h2.5v2.5h-2.5zM225 145.5h2.5v2.5h-2.5zM232.5 145.5h2.5v2.5h-2.5zM225 148h2.5v2.5h-2.5zM235 148h2.5v2.5h-2.5zM240 133h2.5v2.5h-2.5zM242.5 133h2.5v2.5h-2.5zM245 133h2.5v2.5h-2.5zM247.5 133h2.5v2.5h-2.5zM250 133h2.5v2.5h-2.5zM245 135.5h2.5v2.5h-2.5zM245 138h2.5v2.5h-2.5zM245 140.5h2.5v2.5h-2.5zM245 143h2.5v2.5h-2.5zM245 145.5h2.5v2.5h-2.5zM240 148h2.5v2.5h-2.5zM242.5 148h2.5v2.5h-2.5zM245 148h2.5v2.5h-2.5zM247.5 148h2.5v2.5h-2.5zM250 148h2.5v2.5h-2.5zM255 133h2.5v2.5h-2.5zM265 133h2.5v2.5h-2.5zM255 135.5h2.5v2.5h-2.5zM257.5 135.5h2.5v2.5h-2.5zM265 135.5h2.5v2.5h-2.5zM255 138h2.5v2.5h-2.5zM257.5 138h2.5v2.5h-2.5zM265 138h2.5v2.5h-2.5zM255 140.5h2.5v2.5h-2.5zM260 140.5h2.5v2.5h-2.5zM265 140.5h2.5v2.5h-2.5zM255 143h2.5v2.5h-2.5zM262.5 143h2.5v2.5h-2.5zM265 143h2.5v2.5h-2.5zM255 145.5h2.5v2.5h-2.5zM262.5 145.5h2.5v2.5h-2.5zM265 145.5h2.5v2.5h-2.5zM255 148h2.5v2.5h-2.5zM265 148h2.5v2.5h-2.5zM270 133h2.5v2.5h-2.5zM272.5 133h2.5v2.5h-2.5zM275 133h2.5v2.5h-2.5zM277.5 133h2.5v2.5h-2.5zM280 133h2.5v2.5h-2.5zM275 135.5h2.5v2.5h-2.5zM275 138h2.5v2.5h-2.5zM275 140.5h2.5v2.5h-2.5zM275 143h2.5v2.5h-2.5zM275 145.5h2.5v2.5h-2.5zM275 148h2.5v2.5h-2.5zM287.5 133h2.5v2.5h-2.5zM290 133h2.5v2.5h-2.5zM292.5 133h2.5v2.5h-2.5zM295 133h2.5v2.5h-2.5zM285 135.5h2.5v2.5h-2.5zM285 138h2.5v2.5h-2.5zM287.5 140.5h2.5v2.5h-2.5zM290 140.5h2.5v2.5h-2.5zM292.5 140.5h2.5v2.5h-2.5zM295 143h2.5v2.5h-2.5zM295 145.5h2.5v2.5h-2.5zM285 148h2.5v2.5h-2.5zM287.5 148h2.5v2.5h-2.5zM290 148h2.5v2.5h-2.5zM292.5 148h2.5v2.5h-2.5zM325 133h2.5v2.5h-2.5zM325 135.5h2.5v2.5h-2.5zM322.5 138h2.5v2.5h-2.5zM320 140.5h2.5v2.5h-2.5zM317.5 143h2.5v2.5h-2.5zM315 145.5h2.5v2.5h-2.5zM315 148h2.5v2.5h-2.5zM345 133h2.5v2.5h-2.5zM347.5 133h2.5v2.5h-2.5zM350 133h2.5v2.5h-2.5zM352.5 133h2.5v2.5h-2.5zM345 135.5h2.5v2.5h-2.5zM355 135.5h2.5v2.5h-2.5zM345 138h2.5v2.5h-2.5zM355 138h2.5v2.5h-2.5zM345 140.5h2.5v2.5h-2.5zM347.5 140.5h2.5v2.5h-2.5zM350 140.5h2.5v2.5h-2.5zM352.5 140.5h2.5v2.5h-2.5zM345 143h2.5v2.5h-2.5zM345 145.5h2.5v2.5h-2.5zM345 148h2.5v2.5h-2.5zM362.5 133h2.5v2.5h-2.5zM365 133h2.5v2.5h-2.5zM367.5 133h2.5v2.5h-2.5zM360 135.5h2.5v2.5h-2.5zM370 135.5h2.5v2.5h-2.5zM360 138h2.5v2.5h-2.5zM370 138h2.5v2.5h-2.5zM360 140.5h2.5v2.5h-2.5zM362.5 140.5h2.5v2.5h-2.5zM365 140.5h2.5v2.5h-2.5zM367.5 140.5h2.5v2.5h-2.5zM370 140.5h2.5v2.5h-2.5zM360 143h2.5v2.5h-2.5zM370 143h2.5v2.5h-2.5zM360 145.5h2.5v2.5h-2.5zM370 145.5h2.5v2.5h-2.5zM360 148h2.5v2.5h-2.5zM370 148h2.5v2.5h-2.5zM375 133h2.5v2.5h-2.5zM377.5 133h2.5v2.5h-2.5zM380 133h2.5v2.5h-2.5zM382.5 133h2.5v2.5h-2.5zM375 135.5h2.5v2.5h-2.5zM385 135.5h2.5v2.5h-2.5zM375 138h2.5v2.5h-2.5zM385 138h2.5v2.5h-2.5zM375 140.5h2.5v2.5h-2.5zM377.5 140.5h2.5v2.5h-2.5zM380 140.5h2.5v2.5h-2.5zM382.5 140.5h2.5v2.5h-2.5zM375 143h2.5v2.5h-2.5zM375 145.5h2.5v2.5h-2.5zM375 148h2.5v2.5h-2.5zM390 133h2.5v2.5h-2.5zM392.5 133h2.5v2.5h-2.5zM395 133h2.5v2.5h-2.5zM397.5 133h2.5v2.5h-2.5zM400 133h2.5v2.5h-2.5zM390 135.5h2.5v2.5h-2.5zM390 138h2.5v2.5h-2.5zM390 140.5h2.5v2.5h-2.5zM392.5 140.5h2.5v2.5h-2.5zM395 140.5h2.5v2.5h-2.5zM397.5 140.5h2.5v2.5h-2.5zM390 143h2.5v2.5h-2.5zM390 145.5h2.5v2.5h-2.5zM390 148h2.5v2.5h-2.5zM392.5 148h2.5v2.5h-2.5zM395 148h2.5v2.5h-2.5zM397.5 148h2.5v2.5h-2.5zM400 148h2.5v2.5h-2.5zM405 133h2.5v2.5h-2.5zM407.5 133h2.5v2.5h-2.5zM410 133h2.5v2.5h-2.5zM412.5 133h2.5v2.5h-2.5zM405 135.5h2.5v2.5h-2.5zM415 135.5h2.5v2.5h-2.5zM405 138h2.5v2.5h-2.5zM415 138h2.5v2.5h-2.5zM405 140.5h2.5v2.5h-2.5zM407.5 140.5h2.5v2.5h-2.5zM410 140.5h2.5v2.5h-2.5zM412.5 140.5h2.5v2.5h-2.5zM405 143h2.5v2.5h-2.5zM410 143h2.5v2.5h-2.5zM405 145.5h2.5v2.5h-2.5zM412.5 145.5h2.5v2.5h-2.5zM405 148h2.5v2.5h-2.5zM415 148h2.5v2.5h-2.5zM420 133h2.5v2.5h-2.5zM422.5 133h2.5v2.5h-2.5zM425 133h2.5v2.5h-2.5zM427.5 133h2.5v2.5h-2.5zM430 133h2.5v2.5h-2.5zM430 135.5h2.5v2.5h-2.5zM427.5 138h2.5v2.5h-2.5zM425 140.5h2.5v2.5h-2.5zM422.5 143h2.5v2.5h-2.5zM420 145.5h2.5v2.5h-2.5zM420 148h2.5v2.5h-2.5zM422.5 148h2.5v2.5h-2.5zM425 148h2.5v2.5h-2.5zM427.5 148h2.5v2.5h-2.5zM430 148h2.5v2.5h-2.5zM435 133h2.5v2.5h-2.5zM437.5 133h2.5v2.5h-2.5zM440 133h2.5v2.5h-2.5zM442.5 133h2.5v2.5h-2.5zM435 135.5h2.5v2.5h-2.5zM445 135.5h2.5v2.5h-2.5zM435 138h2.5v2.5h-2.5zM445 138h2.5v2.5h-2.5zM435 140.5h2.5v2.5h-2.5zM445 140.5h2.5v2.5h-2.5zM435 143h2.5v2.5h-2.5zM445 143h2.5v2.5h-2.5zM435 145.5h2.5v2.5h-2.5zM445 145.5h2.5v2.5h-2.5zM435 148h2.5v2.5h-2.5zM437.5 148h2.5v2.5h-2.5zM440 148h2.5v2.5h-2.5zM442.5 148h2.5v2.5h-2.5z"/><path fill="#a66b57" d="M560 81h1.8v1.8h-1.8zM561.8 82.8h1.8v1.8h-1.8zM563.6 84.6h1.8v1.8h-1.8zM565.4 86.4h1.8v1.8h-1.8zM563.6 88.2h1.8v1.8h-1.8zM561.8 90h1.8v1.8h-1.8zM560 91.8h1.8v1.8h-1.8z"/></svg>